<svg width="223" height="50" viewBox="0 0 223 50" fill="none" xmlns="http://www.w3.org/2000/svg">
<path d="M46.3722 10.6V39H52.1322V21.04L58.7322 33.08H62.9722L69.5722 21.04V39H75.3322V10.6H69.9322L60.9322 27L51.9722 10.6H46.3722ZM81.3128 10.6V39H91.8328C96.9928 39 102.193 36.68 102.193 30.92C102.193 27.72 100.633 25.12 97.6328 23.96C99.9128 22.72 100.993 20.52 100.993 17.96C100.993 12.52 96.2728 10.6 91.6328 10.6H81.3128ZM87.0728 34.08V26.64H91.5528C94.0328 26.64 96.2328 27.56 96.2328 30.36C96.2328 33.16 94.0328 34.08 91.5528 34.08H87.0728ZM87.0728 22.04V15.52H90.9928C93.1928 15.52 95.0728 16.32 95.0728 18.8C95.0728 21.24 93.1528 22.04 90.9928 22.04H87.0728ZM104.786 15.88H112.786V39H118.746V15.88H126.746V10.6H104.786V15.88ZM126.753 28.44C126.753 34.8 131.433 39.6 137.713 39.6C144.193 39.6 148.833 34.72 148.833 28.4C148.833 22 144.153 17.28 137.873 17.28C131.473 17.28 126.753 22.16 126.753 28.44ZM137.793 22.32C141.193 22.32 143.113 25.32 143.113 28.44C143.113 31.6 141.113 34.56 137.793 34.56C134.433 34.56 132.473 31.52 132.473 28.44C132.473 25.28 134.473 22.32 137.793 22.32ZM153.314 9.16V39H158.794V28.48L167.074 39H174.154L164.394 27.24L173.194 17.88H166.634L158.794 26.48V9.16H153.314ZM175.423 28.4C175.423 34.8 179.863 39.6 186.223 39.6C190.183 39.6 194.303 37.64 195.823 33.84L190.823 32.24C189.783 33.92 188.263 34.88 186.263 34.88C183.223 34.88 181.543 32.64 181.103 29.84H196.263V28.44C196.263 22.04 192.383 17.28 185.943 17.28C179.623 17.28 175.423 22.4 175.423 28.4ZM185.943 21.6C188.623 21.6 190.143 23.6 190.503 26.08H181.183C181.663 23.6 183.263 21.6 185.943 21.6ZM200.539 17.88V39H206.139V26.88C206.139 24.28 207.859 22.32 210.459 22.32C213.219 22.32 214.219 24.6 214.219 27.04V39H219.819V26.32C219.819 21.4 217.299 17.28 212.099 17.28C209.539 17.28 207.179 18.36 205.859 20.6L205.699 17.88H200.539Z" fill="#F7F7F7"/>
<path d="M37.5447 15.0017C40.8164 22.9887 37.8168 33.9749 30.8219 39.5337C23.827 45.0925 15.5106 43.0989 12.239 35.1119C8.96732 27.1249 11.9669 16.1387 18.9618 10.5799C25.9567 5.02115 34.273 7.01472 37.5447 15.0017Z" fill="#434343" stroke="#434343" stroke-width="0.2"/>
<path d="M39.9376 16.4308C43.0263 23.9713 40.1947 34.3441 33.5898 39.5929C26.985 44.8417 19.1332 42.9588 16.0445 35.4184C12.9557 27.878 15.7873 17.5051 22.3922 12.2563C28.997 7.00755 36.8488 8.8904 39.9376 16.4308Z" fill="white" stroke="#434343" stroke-width="0.2"/>
<path d="M38.8945 17.5849C41.7518 24.5602 39.2872 34.014 33.3898 38.7005C27.4925 43.3871 20.3955 41.5318 17.5382 34.5565C14.6809 27.5811 17.1456 18.1274 23.0429 13.4408C28.9402 8.75427 36.0373 10.6095 38.8945 17.5849Z" stroke="#434343" stroke-width="0.2"/>
<path d="M37.0898 19.3414C39.4638 25.1369 37.4483 32.9642 32.5903 36.8248C27.7324 40.6854 21.8691 39.1191 19.4951 33.3236C17.1212 27.5281 19.1366 19.7008 23.9946 15.8402C28.8526 11.9796 34.7158 13.5458 37.0898 19.3414Z" stroke="#434343" stroke-width="0.2"/>
<path d="M29.2657 21.7027L29.2657 21.4749L29.9965 21.1615L29.9965 21.3893L29.2657 21.7027Z" fill="#434343" stroke="#434343" stroke-width="0.2"/>
<path d="M28.5802 22.8524L28.5802 22.6246L30.6827 21.7227L30.6827 21.9505L28.5802 22.8524Z" fill="#434343" stroke="#434343" stroke-width="0.2"/>
<path d="M25.3795 27.2197L25.3795 26.992L25.653 26.8747L25.653 27.1024L25.3795 27.2197Z" fill="#434343" stroke="#434343" stroke-width="0.2"/>
<path d="M26.2928 26.8274L26.2928 26.5996L26.5663 26.4823L26.5663 26.7101L26.2928 26.8274Z" fill="#434343" stroke="#434343" stroke-width="0.2"/>
<path d="M27.2081 26.4351L27.2081 26.2074L27.4816 26.0901L27.4816 26.3178L27.2081 26.4351Z" fill="#434343" stroke="#434343" stroke-width="0.2"/>
<path d="M28.1236 26.0427L28.1236 25.8149L28.3971 25.6976L28.3971 25.9254L28.1236 26.0427Z" fill="#434343" stroke="#434343" stroke-width="0.2"/>
<path d="M29.037 25.6502L29.037 25.4225L29.3104 25.3052L29.3104 25.5329L29.037 25.6502Z" fill="#434343" stroke="#434343" stroke-width="0.2"/>
<path d="M29.9523 25.2581L29.9523 25.0303L30.2257 24.913L30.2257 25.1408L29.9523 25.2581Z" fill="#434343" stroke="#434343" stroke-width="0.2"/>
<path d="M30.8673 24.8657L30.8673 24.638L31.1408 24.5207L31.1408 24.7484L30.8673 24.8657Z" fill="#434343" stroke="#434343" stroke-width="0.2"/>
<path d="M31.7806 24.4735L31.7806 24.2457L32.0541 24.1284L32.0541 24.3562L31.7806 24.4735Z" fill="#434343" stroke="#434343" stroke-width="0.2"/>
<path d="M32.6959 24.0813L32.6959 23.8535L32.9694 23.7362L32.9694 23.964L32.6959 24.0813Z" fill="#434343" stroke="#434343" stroke-width="0.2"/>
<path d="M33.6092 23.689L33.6092 23.4612L33.8827 23.3439L33.8827 23.5717L33.6092 23.689Z" fill="#434343" stroke="#434343" stroke-width="0.2"/>
<path d="M27.4371 29.3312L27.4371 29.1035L27.7106 28.9862L27.7106 29.2139L27.4371 29.3312Z" fill="#434343" stroke="#434343" stroke-width="0.2"/>
<path d="M30.5461 27.5699L30.4542 27.6093L30.4542 27.7093L30.4542 28.5649L30.4542 28.6649L30.5461 28.6254L31.6893 28.1351L31.7812 28.0957L31.7812 27.9957L31.7812 27.1401L31.7812 27.0401L31.6893 27.0796L30.5461 27.5699ZM32.0547 27.8784L32.0547 27.9784L32.1466 27.9389L33.2897 27.4486L33.3817 27.4091L33.3817 27.3091L33.3817 26.4536L33.3817 26.3536L33.2897 26.393L32.1466 26.8834L32.0547 26.9228L32.0547 27.0228L32.0547 27.8784ZM33.2897 26.1653L33.3817 26.1259L33.3817 26.0259L33.3817 25.1704L33.3817 25.0704L33.2897 25.1098L32.1466 25.6001L32.0547 25.6396L32.0547 25.7396L32.0547 26.5951L32.0547 26.6951L32.1466 26.6557L33.2897 26.1653ZM31.7812 25.8569L31.7812 25.7569L31.6893 25.7963L30.5461 26.2866L30.4542 26.3261L30.4542 26.4261L30.4542 27.2816L30.4542 27.3816L30.5461 27.3422L31.6893 26.8518L31.7812 26.8124L31.7812 26.7124L31.7812 25.8569ZM30.1808 28.896L30.1808 26.3295C30.1808 26.2932 30.1929 26.2627 30.2117 26.2371C30.2317 26.2098 30.2661 26.179 30.3175 26.157L33.5184 24.7839C33.5699 24.7619 33.6043 24.7631 33.6242 24.7732C33.643 24.7827 33.6551 24.8027 33.6551 24.8392L33.6551 27.4057C33.6551 27.4422 33.643 27.4727 33.6242 27.4982C33.6043 27.5255 33.5699 27.5562 33.5184 27.5783L30.3175 28.9513C30.266 28.9734 30.2316 28.9721 30.2117 28.962C30.1929 28.9525 30.1808 28.9325 30.1808 28.896Z" fill="#434343" stroke="#434343" stroke-width="0.2"/>
<mask id="path-20-inside-1_1_295" fill="white">
<path d="M35.576 28.0789L35.576 27.4372C35.576 27.3089 35.4845 27.2626 35.3474 27.3214L34.8901 27.5176L34.8901 22.3845L35.576 22.0902C35.7132 22.0314 35.8046 21.9066 35.8046 21.7783L35.8046 20.9869C35.8046 20.9228 35.7818 20.8684 35.7132 20.8551L33.9755 20.4027L33.9755 17.8575C33.9755 17.7292 33.8841 17.6829 33.7469 17.7417L31.9178 18.5263C31.7807 18.5852 31.6892 18.7099 31.6892 18.8383L31.6892 19.7793L29.7687 19.2771C29.6772 19.2522 29.5858 19.2914 29.4943 19.3948L23.7099 25.8969L23.687 25.9067L23.687 25.9281L23.5498 26.0725C23.4812 26.1447 23.4584 26.2187 23.4584 26.2829L23.4584 27.0742C23.4584 27.2025 23.5498 27.2489 23.687 27.19L24.3729 26.8958L24.3729 32.0289L23.9156 32.225C23.7785 32.2839 23.687 32.4087 23.687 32.537L23.687 33.1786L22.7725 33.5709L22.7725 33.9987L23.9156 33.5083L35.3474 28.6047L36.4905 28.1143L36.4905 27.6866L35.576 28.0789ZM33.5183 18.2676L33.5183 18.4814L32.1465 19.0699L32.1465 18.856L33.5183 18.2676ZM32.1465 19.4976L33.5183 18.9092L33.5183 20.278L32.1465 19.904L32.1465 19.4976ZM23.9156 26.2364L33.061 22.3135L33.061 21.8858L24.4644 25.5733L29.6315 19.7639L35.3474 21.2902L35.3474 21.7608L34.6614 22.055L24.6015 26.3702L23.9156 26.6644L23.9156 26.2364ZM24.8302 26.6997L34.4328 22.5806L34.4328 27.7137L28.717 30.1655L28.717 27.1712L29.1742 26.9751L29.1742 26.5473L28.4883 26.8415L25.9733 27.9203L25.2874 28.2145L25.2874 28.6423L25.7447 28.4462L25.7447 31.4405L24.8302 31.8327L24.8302 26.6997ZM26.202 28.25L28.2597 27.3674L28.2597 30.3617L26.202 31.2443L26.202 28.25ZM24.1443 32.9825L24.1443 32.5547L24.6015 32.3586L25.9733 31.7701L28.4883 30.6913L34.6614 28.0434L35.1187 27.8472L35.1187 28.275L24.1443 32.9825Z"/>
</mask>
<path d="M35.576 28.0789L35.576 27.4372C35.576 27.3089 35.4845 27.2626 35.3474 27.3214L34.8901 27.5176L34.8901 22.3845L35.576 22.0902C35.7132 22.0314 35.8046 21.9066 35.8046 21.7783L35.8046 20.9869C35.8046 20.9228 35.7818 20.8684 35.7132 20.8551L33.9755 20.4027L33.9755 17.8575C33.9755 17.7292 33.8841 17.6829 33.7469 17.7417L31.9178 18.5263C31.7807 18.5852 31.6892 18.7099 31.6892 18.8383L31.6892 19.7793L29.7687 19.2771C29.6772 19.2522 29.5858 19.2914 29.4943 19.3948L23.7099 25.8969L23.687 25.9067L23.687 25.9281L23.5498 26.0725C23.4812 26.1447 23.4584 26.2187 23.4584 26.2829L23.4584 27.0742C23.4584 27.2025 23.5498 27.2489 23.687 27.19L24.3729 26.8958L24.3729 32.0289L23.9156 32.225C23.7785 32.2839 23.687 32.4087 23.687 32.537L23.687 33.1786L22.7725 33.5709L22.7725 33.9987L23.9156 33.5083L35.3474 28.6047L36.4905 28.1143L36.4905 27.6866L35.576 28.0789ZM33.5183 18.2676L33.5183 18.4814L32.1465 19.0699L32.1465 18.856L33.5183 18.2676ZM32.1465 19.4976L33.5183 18.9092L33.5183 20.278L32.1465 19.904L32.1465 19.4976ZM23.9156 26.2364L33.061 22.3135L33.061 21.8858L24.4644 25.5733L29.6315 19.7639L35.3474 21.2902L35.3474 21.7608L34.6614 22.055L24.6015 26.3702L23.9156 26.6644L23.9156 26.2364ZM24.8302 26.6997L34.4328 22.5806L34.4328 27.7137L28.717 30.1655L28.717 27.1712L29.1742 26.9751L29.1742 26.5473L28.4883 26.8415L25.9733 27.9203L25.2874 28.2145L25.2874 28.6423L25.7447 28.4462L25.7447 31.4405L24.8302 31.8327L24.8302 26.6997ZM26.202 28.25L28.2597 27.3674L28.2597 30.3617L26.202 31.2443L26.202 28.25ZM24.1443 32.9825L24.1443 32.5547L24.6015 32.3586L25.9733 31.7701L28.4883 30.6913L34.6614 28.0434L35.1187 27.8472L35.1187 28.275L24.1443 32.9825Z" fill="#434343"/>
<path d="M35.576 28.0789L35.3922 28.1577L35.3922 28.3577L35.576 28.2789L35.576 28.0789ZM34.8901 27.5176L34.7063 27.5964L34.7063 27.7964L34.8901 27.7176L34.8901 27.5176ZM34.8901 22.3845L34.8901 22.1845L34.7063 22.2633L34.7063 22.4633L34.8901 22.3845ZM35.7132 20.8551L35.6147 21.0664L35.6218 21.0678L35.7132 20.8551ZM33.9755 20.4027L33.7917 20.4815L33.7917 20.5916L33.8772 20.6138L33.9755 20.4027ZM31.6892 19.7793L31.5907 19.9904L31.873 20.0643L31.873 19.7005L31.6892 19.7793ZM29.7687 19.2771L29.6691 19.4879L29.6702 19.4882L29.7687 19.2771ZM29.4943 19.3948L29.5933 19.5209L29.5939 19.5201L29.4943 19.3948ZM23.7099 25.8969L23.7099 26.0969L23.7636 26.0739L23.8088 26.023L23.7099 25.8969ZM23.687 25.9067L23.687 25.7067L23.5032 25.7856L23.5032 25.9856L23.687 25.9067ZM23.687 25.9281L23.7784 26.0624L23.8708 25.9652L23.8708 25.8493L23.687 25.9281ZM23.5498 26.0725L23.6412 26.2068L23.6412 26.2068L23.5498 26.0725ZM24.3729 26.8958L24.5567 26.817L24.5567 26.617L24.3729 26.6958L24.3729 26.8958ZM24.3729 32.0289L24.3729 32.2289L24.5567 32.15L24.5567 31.95L24.3729 32.0289ZM23.687 33.1786L23.687 33.3786L23.8708 33.2998L23.8708 33.0998L23.687 33.1786ZM22.7725 33.5709L22.7725 33.3709L22.5887 33.4498L22.5887 33.6498L22.7725 33.5709ZM22.7725 33.9987L22.5887 34.0775L22.5887 34.2775L22.7725 34.1987L22.7725 33.9987ZM36.4905 28.1143L36.4905 28.3143L36.6743 28.2355L36.6743 28.0355L36.4905 28.1143ZM36.4905 27.6866L36.6743 27.6077L36.6743 27.4077L36.4905 27.4866L36.4905 27.6866ZM33.5183 18.2676L33.7021 18.1887L33.7021 17.9887L33.5183 18.0676L33.5183 18.2676ZM33.5183 18.4814L33.5183 18.6814L33.7021 18.6026L33.7021 18.4026L33.5183 18.4814ZM32.1465 19.0699L31.9627 19.1487L31.9627 19.3487L32.1465 19.2699L32.1465 19.0699ZM32.1465 18.856L32.1465 18.656L31.9627 18.7348L31.9627 18.9348L32.1465 18.856ZM32.1465 19.4976L32.1465 19.2976L31.9627 19.3765L31.9627 19.5765L32.1465 19.4976ZM33.5183 18.9092L33.7021 18.8304L33.7021 18.6304L33.5183 18.7092L33.5183 18.9092ZM33.5183 20.278L33.4187 20.4888L33.7021 20.5661L33.7021 20.1992L33.5183 20.278ZM32.1465 19.904L31.9627 19.9828L31.9627 20.0919L32.0469 20.1148L32.1465 19.904ZM23.9156 26.2364L23.9156 26.0364L23.7318 26.1153L23.7318 26.3153L23.9156 26.2364ZM33.061 22.3135L33.061 22.5135L33.2448 22.4347L33.2448 22.2347L33.061 22.3135ZM33.061 21.8858L33.2448 21.8069L33.2448 21.6069L33.061 21.6858L33.061 21.8858ZM24.4644 25.5733L24.3654 25.4472L23.8354 26.0431L24.4644 25.7733L24.4644 25.5733ZM29.6315 19.7639L29.7305 19.5529L29.6315 19.5265L29.5325 19.6378L29.6315 19.7639ZM35.3474 21.2902L35.5312 21.2114L35.5312 21.1019L35.4464 21.0793L35.3474 21.2902ZM35.3474 21.7608L35.3474 21.9608L35.5312 21.8819L35.5312 21.6819L35.3474 21.7608ZM23.9156 26.6644L23.7318 26.7432L23.7318 26.9432L23.9156 26.8644L23.9156 26.6644ZM24.8302 26.6997L24.8302 26.4997L24.6464 26.5785L24.6464 26.7785L24.8302 26.6997ZM34.4328 22.5806L34.6166 22.5018L34.6166 22.3018L34.4328 22.3806L34.4328 22.5806ZM34.4328 27.7137L34.4328 27.9137L34.6166 27.8349L34.6166 27.6349L34.4328 27.7137ZM28.717 30.1655L28.5332 30.2444L28.5332 30.4444L28.717 30.3655L28.717 30.1655ZM28.717 27.1712L28.717 26.9712L28.5332 27.0501L28.5332 27.2501L28.717 27.1712ZM29.1742 26.9751L29.1742 27.1751L29.358 27.0962L29.358 26.8962L29.1742 26.9751ZM29.1742 26.5473L29.358 26.4685L29.358 26.2685L29.1742 26.3473L29.1742 26.5473ZM25.2874 28.2145L25.2874 28.0145L25.1036 28.0934L25.1036 28.2934L25.2874 28.2145ZM25.2874 28.6423L25.1036 28.7211L25.1036 28.9211L25.2874 28.8423L25.2874 28.6423ZM25.7447 28.4462L25.9285 28.3673L25.9285 28.1673L25.7447 28.2462L25.7447 28.4462ZM25.7447 31.4405L25.7447 31.6405L25.9285 31.5616L25.9285 31.3616L25.7447 31.4405ZM24.8302 31.8327L24.6464 31.9116L24.6464 32.1116L24.8302 32.0327L24.8302 31.8327ZM26.202 28.25L26.202 28.05L26.0182 28.1288L26.0182 28.3288L26.202 28.25ZM28.2597 27.3674L28.4435 27.2885L28.4435 27.0885L28.2597 27.1674L28.2597 27.3674ZM28.2597 30.3617L28.2597 30.5617L28.4435 30.4828L28.4435 30.2828L28.2597 30.3617ZM26.202 31.2443L26.0182 31.3232L26.0182 31.5232L26.202 31.4443L26.202 31.2443ZM24.1443 32.9825L23.9605 33.0613L23.9605 33.2613L24.1443 33.1825L24.1443 32.9825ZM24.1443 32.5547L24.1443 32.3547L23.9605 32.4336L23.9605 32.6336L24.1443 32.5547ZM35.1187 27.8472L35.3025 27.7684L35.3025 27.5684L35.1187 27.6472L35.1187 27.8472ZM35.1187 28.275L35.1187 28.475L35.3025 28.3962L35.3025 28.1962L35.1187 28.275ZM35.7598 28L35.7598 27.3584L35.3922 27.5161L35.3922 28.1577L35.7598 28ZM35.7598 27.3584C35.7598 27.2388 35.7155 27.1479 35.6329 27.1061C35.5528 27.0655 35.4501 27.0773 35.3474 27.1214L35.3474 27.5214C35.3642 27.5142 35.376 27.5118 35.3832 27.5113C35.3904 27.5108 35.3931 27.5121 35.3933 27.5122C35.3934 27.5122 35.3932 27.5121 35.3927 27.5117C35.3923 27.5113 35.392 27.5108 35.3918 27.5104C35.3912 27.5092 35.3922 27.5102 35.3922 27.5161L35.7598 27.3584ZM35.3474 27.1214L34.8901 27.3176L34.8901 27.7176L35.3474 27.5214L35.3474 27.1214ZM35.0739 27.4387L35.0739 22.3056L34.7063 22.4633L34.7063 27.5964L35.0739 27.4387ZM34.8901 22.5845L35.576 22.2902L35.576 21.8902L34.8901 22.1845L34.8901 22.5845ZM35.576 22.2902C35.6788 22.2462 35.7815 22.1699 35.8616 22.0606C35.9442 21.9479 35.9884 21.819 35.9884 21.6995L35.6208 21.8571C35.6208 21.863 35.6198 21.8648 35.6204 21.8632C35.6206 21.8626 35.621 21.8618 35.6214 21.861C35.6218 21.8602 35.622 21.8599 35.6219 21.8601C35.6218 21.8603 35.6191 21.8639 35.6119 21.8696C35.6046 21.8753 35.5929 21.883 35.576 21.8902L35.576 22.2902ZM35.9884 21.6995L35.9884 20.9081L35.6208 21.0658L35.6208 21.8571L35.9884 21.6995ZM35.9884 20.9081C35.9884 20.7846 35.9395 20.6686 35.8046 20.6423L35.6218 21.0678C35.6254 21.0685 35.6262 21.0693 35.6254 21.0688C35.6246 21.0682 35.6233 21.067 35.6221 21.0651C35.6197 21.0612 35.6208 21.0594 35.6208 21.0658L35.9884 20.9081ZM35.8115 20.6439L34.0739 20.1916L33.8772 20.6138L35.6148 21.0662L35.8115 20.6439ZM34.1594 20.3239L34.1594 17.7787L33.7917 17.9364L33.7917 20.4815L34.1594 20.3239ZM34.1594 17.7787C34.1594 17.6591 34.1151 17.5682 34.0325 17.5264C33.9524 17.4858 33.8497 17.4976 33.7469 17.5417L33.7469 17.9417C33.7638 17.9345 33.7755 17.9321 33.7828 17.9316C33.79 17.9311 33.7927 17.9324 33.7928 17.9325C33.793 17.9326 33.7927 17.9325 33.7923 17.932C33.7919 17.9316 33.7916 17.9311 33.7913 17.9307C33.7908 17.9295 33.7917 17.9305 33.7917 17.9364L34.1594 17.7787ZM33.7469 17.5417L31.9178 18.3263L31.9178 18.7263L33.7469 17.9417L33.7469 17.5417ZM31.9178 18.3263C31.8151 18.3704 31.7123 18.4467 31.6323 18.556C31.5497 18.6686 31.5054 18.7975 31.5054 18.9171L31.873 18.7594C31.873 18.7535 31.874 18.7517 31.8734 18.7534C31.8732 18.754 31.8729 18.7548 31.8724 18.7556C31.872 18.7563 31.8718 18.7567 31.8719 18.7565C31.8721 18.7563 31.8748 18.7526 31.8819 18.747C31.8892 18.7412 31.901 18.7335 31.9178 18.7263L31.9178 18.3263ZM31.5054 18.9171L31.5054 19.8582L31.873 19.7005L31.873 18.7594L31.5054 18.9171ZM31.7877 19.5682L29.8672 19.066L29.6702 19.4882L31.5907 19.9904L31.7877 19.5682ZM29.8683 19.0663C29.7986 19.0473 29.7188 19.0504 29.6315 19.0878C29.5442 19.1253 29.4644 19.1906 29.3947 19.2694L29.5939 19.5201C29.6157 19.4955 29.6273 19.4896 29.6315 19.4878C29.6357 19.486 29.6473 19.482 29.6691 19.4879L29.8683 19.0663ZM29.3954 19.2687L23.6109 25.7708L23.8088 26.023L29.5933 19.5209L29.3954 19.2687ZM23.7099 25.6969L23.687 25.7067L23.687 26.1067L23.7099 26.0969L23.7099 25.6969ZM23.5032 25.9856L23.5032 26.007L23.8708 25.8493L23.8708 25.8279L23.5032 25.9856ZM23.5956 25.7938L23.4584 25.9382L23.6412 26.2068L23.7784 26.0624L23.5956 25.7938ZM23.4584 25.9382C23.3235 26.0803 23.2746 26.2382 23.2746 26.3617L23.6422 26.204C23.6422 26.1976 23.6433 26.1985 23.6409 26.2045C23.6397 26.2074 23.6384 26.2097 23.6376 26.2109C23.6368 26.2121 23.6376 26.2107 23.6412 26.2068L23.4584 25.9382ZM23.2746 26.3617L23.2746 27.153L23.6422 26.9954L23.6422 26.204L23.2746 26.3617ZM23.2746 27.153C23.2746 27.2726 23.3188 27.3635 23.4014 27.4054C23.4815 27.4459 23.5842 27.4341 23.687 27.39L23.687 26.99C23.6701 26.9972 23.6584 26.9996 23.6511 27.0001C23.6439 27.0006 23.6412 26.9993 23.6411 26.9992C23.6409 26.9992 23.6412 26.9993 23.6416 26.9997C23.642 27.0001 23.6424 27.0006 23.6426 27.0011C23.6431 27.0022 23.6422 27.0013 23.6422 26.9954L23.2746 27.153ZM23.687 27.39L24.3729 27.0958L24.3729 26.6958L23.687 26.99L23.687 27.39ZM24.1891 26.9746L24.1891 32.1077L24.5567 31.95L24.5567 26.817L24.1891 26.9746ZM24.3729 31.8289L23.9156 32.025L23.9156 32.425L24.3729 32.2289L24.3729 31.8289ZM23.9156 32.025C23.8129 32.0691 23.7101 32.1454 23.63 32.2547C23.5475 32.3674 23.5032 32.4963 23.5032 32.6158L23.8708 32.4581C23.8708 32.4522 23.8718 32.4505 23.8712 32.4521C23.871 32.4527 23.8707 32.4535 23.8702 32.4543C23.8698 32.455 23.8696 32.4554 23.8697 32.4552C23.8699 32.455 23.8725 32.4514 23.8797 32.4457C23.887 32.4399 23.8988 32.4323 23.9156 32.425L23.9156 32.025ZM23.5032 32.6158L23.5032 33.2575L23.8708 33.0998L23.8708 32.4581L23.5032 32.6158ZM23.687 32.9786L22.7725 33.3709L22.7725 33.7709L23.687 33.3786L23.687 32.9786ZM22.5887 33.6498L22.5887 34.0775L22.9563 33.9198L22.9563 33.4921L22.5887 33.6498ZM22.7725 34.1987L23.9156 33.7083L23.9156 33.3083L22.7725 33.7987L22.7725 34.1987ZM23.9156 33.7083L35.3474 28.8047L35.3474 28.4047L23.9156 33.3083L23.9156 33.7083ZM35.3474 28.8047L36.4905 28.3143L36.4905 27.9143L35.3474 28.4047L35.3474 28.8047ZM36.6743 28.0355L36.6743 27.6077L36.3067 27.7654L36.3067 28.1932L36.6743 28.0355ZM36.4905 27.4866L35.576 27.8789L35.576 28.2789L36.4905 27.8866L36.4905 27.4866ZM33.3345 18.3464L33.3345 18.5603L33.7021 18.4026L33.7021 18.1887L33.3345 18.3464ZM33.5183 18.2814L32.1465 18.8699L32.1465 19.2699L33.5183 18.6814L33.5183 18.2814ZM32.3303 18.991L32.3303 18.7772L31.9627 18.9348L31.9627 19.1487L32.3303 18.991ZM32.1465 19.056L33.5183 18.4676L33.5183 18.0676L32.1465 18.656L32.1465 19.056ZM32.1465 19.6976L33.5183 19.1092L33.5183 18.7092L32.1465 19.2976L32.1465 19.6976ZM33.3345 18.988L33.3345 20.3569L33.7021 20.1992L33.7021 18.8304L33.3345 18.988ZM33.6179 20.0672L32.2461 19.6932L32.0469 20.1148L33.4187 20.4888L33.6179 20.0672ZM32.3303 19.8252L32.3303 19.4188L31.9627 19.5765L31.9627 19.9828L32.3303 19.8252ZM23.9156 26.4364L33.061 22.5135L33.061 22.1135L23.9156 26.0364L23.9156 26.4364ZM33.2448 22.2347L33.2448 21.8069L32.8772 21.9646L32.8772 22.3924L33.2448 22.2347ZM33.061 21.6858L24.4644 25.3733L24.4644 25.7733L33.061 22.0858L33.061 21.6858ZM24.5633 25.6994L29.7305 19.89L29.5325 19.6378L24.3654 25.4472L24.5633 25.6994ZM29.5325 19.9749L35.2483 21.5012L35.4464 21.0793L29.7305 19.5529L29.5325 19.9749ZM35.1635 21.3691L35.1635 21.8396L35.5312 21.6819L35.5312 21.2114L35.1635 21.3691ZM35.3474 21.5608L34.6614 21.855L34.6614 22.255L35.3474 21.9608L35.3474 21.5608ZM34.6614 21.855L24.6015 26.1702L24.6015 26.5702L34.6614 22.255L34.6614 21.855ZM24.6015 26.1702L23.9156 26.4644L23.9156 26.8644L24.6015 26.5702L24.6015 26.1702ZM24.0994 26.5856L24.0994 26.1576L23.7318 26.3153L23.7318 26.7432L24.0994 26.5856ZM24.8302 26.8997L34.4328 22.7806L34.4328 22.3806L24.8302 26.4997L24.8302 26.8997ZM34.249 22.6595L34.249 27.7925L34.6166 27.6349L34.6166 22.5018L34.249 22.6595ZM34.4328 27.5137L28.717 29.9655L28.717 30.3655L34.4328 27.9137L34.4328 27.5137ZM28.9008 30.0867L28.9008 27.0924L28.5332 27.2501L28.5332 30.2444L28.9008 30.0867ZM28.717 27.3712L29.1742 27.1751L29.1742 26.7751L28.717 26.9712L28.717 27.3712ZM29.358 26.8962L29.358 26.4685L28.9904 26.6261L28.9904 27.0539L29.358 26.8962ZM29.1742 26.3473L28.4883 26.6415L28.4883 27.0415L29.1742 26.7473L29.1742 26.3473ZM28.4883 26.6415L25.9733 27.7203L25.9733 28.1203L28.4883 27.0415L28.4883 26.6415ZM25.9733 27.7203L25.2874 28.0145L25.2874 28.4145L25.9733 28.1203L25.9733 27.7203ZM25.1036 28.2934L25.1036 28.7211L25.4712 28.5635L25.4712 28.1357L25.1036 28.2934ZM25.2874 28.8423L25.7447 28.6462L25.7447 28.2462L25.2874 28.4423L25.2874 28.8423ZM25.5609 28.525L25.5609 31.5193L25.9285 31.3616L25.9285 28.3673L25.5609 28.525ZM25.7447 31.2405L24.8302 31.6327L24.8302 32.0327L25.7447 31.6405L25.7447 31.2405ZM25.014 31.7539L25.014 26.6208L24.6464 26.7785L24.6464 31.9116L25.014 31.7539ZM26.202 28.45L28.2597 27.5674L28.2597 27.1674L26.202 28.05L26.202 28.45ZM28.0759 27.4462L28.0759 30.4405L28.4435 30.2828L28.4435 27.2885L28.0759 27.4462ZM28.2597 30.1617L26.202 31.0443L26.202 31.4443L28.2597 30.5617L28.2597 30.1617ZM26.3858 31.1655L26.3858 28.1712L26.0182 28.3288L26.0182 31.3232L26.3858 31.1655ZM24.3281 32.9036L24.3281 32.4759L23.9605 32.6336L23.9605 33.0613L24.3281 32.9036ZM24.1443 32.7547L24.6015 32.5586L24.6015 32.1586L24.1443 32.3547L24.1443 32.7547ZM24.6015 32.5586L25.9733 31.9701L25.9733 31.5701L24.6015 32.1586L24.6015 32.5586ZM25.9733 31.9701L28.4883 30.8913L28.4883 30.4913L25.9733 31.5701L25.9733 31.9701ZM28.4883 30.8913L34.6614 28.2434L34.6614 27.8434L28.4883 30.4913L28.4883 30.8913ZM34.6614 28.2434L35.1187 28.0472L35.1187 27.6472L34.6614 27.8434L34.6614 28.2434ZM34.9349 27.9261L34.9349 28.3538L35.3025 28.1962L35.3025 27.7684L34.9349 27.9261ZM35.1187 28.075L24.1443 32.7825L24.1443 33.1825L35.1187 28.475L35.1187 28.075Z" fill="#434343" mask="url(#path-20-inside-1_1_295)"/>
</svg>
